<svg version="1.2" xmlns="http://www.w3.org/2000/svg" viewBox="0 0 41 42" width="41" height="42">
	<title>payment-icon-01</title>
	<style>
		.s0 { fill: #da6464 } 
	</style>
	<g style="opacity: .1">
		<path fill-rule="evenodd" class="s0" d="m8.5 1.5h24c4.4 0 7.9 3.6 7.9 8v24c0 4.4-3.5 8-7.9 8h-24c-4.4 0-7.9-3.6-7.9-8v-24c0-4.4 3.5-8 7.9-8z"/>
	</g>
	<path class="s0" d="m17.8 26.2v3.9c0 0.2 0.2 0.5 0.4 0.6q0.1 0 0.2 0c0.2 0 0.4-0.1 0.5-0.3l2.3-3.1z"/>
	<path class="s0" d="m30.2 11.6c-0.2-0.1-0.4-0.2-0.7 0l-18.6 9.8c-0.2 0.1-0.4 0.3-0.4 0.6 0.1 0.2 0.2 0.4 0.5 0.5l5.2 1.8 11-9.5-8.5 10.4 8.7 2.9q0.1 0.1 0.2 0.1 0.1 0 0.3-0.1 0.2-0.2 0.3-0.5l2.3-15.4c0-0.2-0.1-0.5-0.3-0.6z"/>
</svg>